:SAMPLES-PER-SECOND 30
:FRAME-RANGE 1-3549
:FULLY-SPECIFIED
:DEGREES
2219
root  -13.3507 39.9859 -42.1633 2.6712 3.80695 1.9426
RightUpLeg  -1.90967 0.828772 -0.71437
RightLeg  13.618 -1.28814 -1.16783
RightFoot  -12.3401 -0.0707749 1.47089
RightToes  1.218e-010 1.26228e-014 -6.01869e-014
Spine  -8.64631 -0.230688 0.322915
Spine1  11.3355 0.147087 -1.78555
HEad  6.73068 12.9679 -1.90204
LeftShoulder1  1.02625 -0.359338 -21.905
LeftArm  3.00669 1.10244 -48.5758
LeftForeArm  40.9612 0.832097 -13.4414
LeftHand  -0.0340915 5.10262 2.95571
RightShoulder  1.42836 1.30888 24.8325
RightArm  -19.9644 8.0799 47.0785
RightForeArm  68.3812 -2.94955 6.01036
RightHand  0.0557207 -5.91085 -15.8619
LeftUpLeg  -10.8456 3.09803 -2.16468
LeftLeg  11.1063 14.478 2.85
LeftFoot  -2.47874 0.0779327 -0.813045
LeftToes  -1.43952e-010 7.51141e-011 -1.22592e-011
2220
root  -13.2682 40.0213 -41.9421 2.7569 4.49091 2.00257
RightUpLeg  -1.03948 0.173575 -0.798386
RightLeg  12.5927 -1.36073 -1.32566
RightFoot  -12.2397 -0.0696806 1.68964
RightToes  1.218e-010 1.26228e-014 -6.01869e-014
Spine  -9.01104 -0.137496 0.21933
Spine1  11.3031 0.341668 -2.0679
HEad  6.76285 12.3057 -2.15491
LeftShoulder1  1.00333 -0.274276 -21.9313
LeftArm  2.89445 0.581739 -48.7992
LeftForeArm  41.1762 0.870861 -13.4007
LeftHand  -0.0328536 4.96781 2.80739
RightShoulder  1.42305 1.26257 25.0388
RightArm  -19.9844 7.49542 47.3938
RightForeArm  68.915 -3.95342 5.90678
RightHand  0.0604315 -5.94863 -15.7997
LeftUpLeg  -10.2158 2.92325 -2.30506
LeftLeg  10.3106 13.9815 2.44842
LeftFoot  -2.50641 0.0723579 -0.745251
LeftToes  -1.43952e-010 7.51141e-011 -1.22592e-011
2221
root  -13.1829 40.0437 -41.7515 2.93402 5.07312 2.12514
RightUpLeg  -0.433177 -0.210505 -0.958532
RightLeg  11.8038 -1.54018 -1.48357
RightFoot  -12.2202 -0.0698004 1.69439
RightToes  1.218e-010 1.26228e-014 -6.01869e-014
Spine  -9.40743 -0.0306504 0.11598
Spine1  11.4193 0.559769 -2.39159
HEad  6.54729 11.8013 -2.58504
LeftShoulder1  0.964461 -0.121515 -22.0528
LeftArm  2.318 0.425665 -48.995
LeftForeArm  41.2516 0.362065 -13.1715
LeftHand  -0.0312973 5.15516 3.2525
RightShoulder  1.43598 1.29786 25.0848
RightArm  -20.2323 7.22509 47.7934
RightForeArm  69.6316 -5.60579 5.59585
RightHand  0.075093 -6.05941 -15.7746
LeftUpLeg  -9.8166 2.73467 -2.51553
LeftLeg  9.70146 13.6441 2.14468
LeftFoot  -2.51003 0.0551901 -0.488028
LeftToes  -1.43952e-010 7.51141e-011 -1.22592e-011
2222
root  -13.1074 40.0487 -41.6073 3.18634 5.48828 2.27409
RightUpLeg  -0.217769 -0.362328 -1.16574
RightLeg  11.4629 -1.78035 -1.57402
RightFoot  -12.3383 -0.0667367 1.9386
RightToes  1.218e-010 1.26228e-014 -6.01869e-014
Spine  -9.63367 0.1029 0.0553121
Spine1  11.4569 0.811907 -2.77972
HEad  6.10106 11.4466 -3.07216
LeftShoulder1  0.924346 0.0376657 -22.2041
LeftArm  2.43516 0.467326 -49.1075
LeftForeArm  40.5808 -0.587823 -13.0668
LeftHand  -0.0333549 5.08309 3.49818
RightShoulder  1.46023 1.37183 25.1148
RightArm  -21.2532 6.84683 48.4568
RightForeArm  70.9879 -5.53231 5.12244
RightHand  0.109763 -6.30896 -15.9158
LeftUpLeg  -9.69153 2.62721 -2.73332
LeftLeg  9.3718 13.3821 1.89384
LeftFoot  -2.60809 0.0390713 -0.239301
LeftToes  -1.43952e-010 7.51141e-011 -1.22592e-011
2223
root  -13.0419 40.0447 -41.4958 3.50494 5.90009 2.42082
RightUpLeg  -0.28408 -0.36659 -1.3692
RightLeg  11.4406 -2.1789 -1.63214
RightFoot  -12.5208 -0.0615411 2.26435
RightToes  1.218e-010 1.26228e-014 -6.01869e-014
Spine  -9.80123 0.205477 -0.046333
Spine1  11.5221 1.01969 -3.13351
HEad  5.48793 11.2769 -3.55813
LeftShoulder1  0.899206 0.143472 -22.3642
LeftArm  2.70688 0.619381 -49.2154
LeftForeArm  40.0318 -1.58387 -12.9626
LeftHand  -0.0365108 4.97407 3.65746
RightShoulder  1.46574 1.37613 25.2088
RightArm  -22.4758 6.49745 49.0994
RightForeArm  72.3836 -5.37481 4.50294
RightHand  0.130093 -6.47049 -15.7759
LeftUpLeg  -9.73221 2.30601 -3.00853
LeftLeg  9.13203 13.2833 1.85422
LeftFoot  -2.65812 0.0347828 -0.168062
LeftToes  -1.43952e-010 7.51141e-011 -1.22592e-011
2224
root  -12.9783 40.0389 -41.3978 3.83044 6.32568 2.58297
RightUpLeg  -0.412821 -0.272364 -1.56473
RightLeg  11.5072 -2.72817 -1.726
RightFoot  -12.6859 -0.0590636 2.2925
RightToes  1.218e-010 1.26228e-014 -6.01869e-014
Spine  -9.94668 0.263829 -0.214396
Spine1  11.6144 1.16102 -3.39795
HEad  4.92415 11.1605 -4.01982
LeftShoulder1  0.879101 0.227629 -22.4956
LeftArm  2.86875 0.848368 -49.2927
LeftForeArm  39.6993 -2.36815 -12.8448
LeftHand  -0.0475347 4.51015 3.46133
RightShoulder  1.47885 1.40343 25.3121
RightArm  -23.5274 5.89174 49.6588
RightForeArm  73.2498 -5.25192 3.97099
RightHand  0.1508 -6.63614 -15.6548
LeftUpLeg  -9.77792 2.17189 -3.22738
LeftLeg  8.85535 12.9932 1.62798
LeftFoot  -2.7386 0.0334991 -0.1386
LeftToes  -1.43952e-010 7.51141e-011 -1.22592e-011
2225
root  -12.9278 40.0294 -41.3266 4.20221 6.78326 2.71161
RightUpLeg  -0.605846 -0.201667 -1.70782
RightLeg  11.5166 -3.28296 -1.78364
RightFoot  -12.8906 -0.0532224 2.52443
RightToes  1.218e-010 1.26228e-014 -6.01869e-014
Spine  -9.93273 0.314254 -0.477892
Spine1  11.5394 1.26695 -3.58739
HEad  4.43368 11.0543 -4.22666
LeftShoulder1  0.856975 0.304365 -22.4879
LeftArm  3.06874 0.954297 -49.5771
LeftForeArm  39.5111 -2.57011 -12.8481
LeftHand  -0.0490222 4.50173 3.65186
RightShoulder  1.45897 1.30418 25.5649
RightArm  -24.0697 5.03592 49.9553
RightForeArm  73.5196 -5.20201 3.73606
RightHand  0.157688 -6.70224 -15.5057
LeftUpLeg  -9.98122 1.87029 -3.47362
LeftLeg  8.66984 12.794 1.61737
LeftFoot  -2.73584 0.0299412 -0.0703295
LeftToes  -1.43952e-010 7.51141e-011 -1.22592e-011
2226
root  -12.8886 40.0031 -41.2658 4.55896 7.2937 2.91028
RightUpLeg  -0.967745 0.102164 -1.90922
RightLeg  11.9363 -4.05126 -1.86551
RightFoot  -13.2496 -0.0443207 2.72989
RightToes  1.218e-010 1.26228e-014 -6.01869e-014
Spine  -9.8691 0.33353 -0.933779
Spine1  11.4631 1.3266 -3.68858
HEad  4.11801 10.9836 -4.12337
LeftShoulder1  0.831952 0.397066 -22.5402
LeftArm  3.00062 1.04374 -49.7404
LeftForeArm  39.639 -2.48752 -12.8494
LeftHand  -0.0483335 4.36434 3.37373
RightShoulder  1.44997 1.24113 25.815
RightArm  -24.3341 3.82645 50.1485
RightForeArm  73.2134 -5.20721 3.69287
RightHand  0.154716 -6.68831 -15.4148
LeftUpLeg  -10.1739 1.51766 -3.82857
LeftLeg  8.52028 12.5902 1.71066
LeftFoot  -2.8419 0.0298032 -0.0531862
LeftToes  -1.43952e-010 7.51141e-011 -1.22592e-011
2227
root  -12.8629 39.9522 -41.2185 4.83929 7.77118 3.11527
RightUpLeg  -1.50446 0.778135 -2.08704
RightLeg  12.8606 -5.15233 -2.00906
RightFoot  -13.8101 -0.0278524 3.05039
RightToes  1.218e-010 1.26228e-014 -6.01869e-014
Spine  -9.69077 0.321458 -1.44465
Spine1  11.4265 1.36042 -3.84968
HEad  3.80106 10.9503 -3.9392
LeftShoulder1  0.809674 0.4843 -22.6403
LeftArm  2.73912 1.15992 -49.7503
LeftForeArm  39.7211 -2.17293 -12.8668
LeftHand  -0.0426657 4.59021 3.6008
RightShoulder  1.44285 1.18245 26.0833
RightArm  -24.2522 2.79848 50.1837
RightForeArm  72.5984 -5.25558 3.83503
RightHand  0.132897 -6.52529 -15.3677
LeftUpLeg  -10.5206 1.52963 -4.05719
LeftLeg  8.82267 12.0818 1.60218
LeftFoot  -3.17117 0.0196827 0.119665
LeftToes  -1.43952e-010 7.51141e-011 -1.22592e-011
2228
root  -12.8585 39.8735 -41.1914 5.06805 8.22235 3.38953
RightUpLeg  -2.39359 1.72617 -2.32462
RightLeg  14.5944 -6.48452 -2.25521
RightFoot  -14.6085 -0.00414954 3.32511
RightToes  1.218e-010 1.26228e-014 -6.01869e-014
Spine  -9.36631 0.256877 -2.18989
Spine1  11.343 1.33261 -3.96954
HEad  3.58635 10.9697 -3.51604
LeftShoulder1  0.811422 0.477759 -22.6355
LeftArm  2.37273 1.37238 -49.6617
LeftForeArm  39.7812 -1.66817 -12.8974
LeftHand  -0.0341672 5.09998 4.33967
RightShoulder  1.43821 1.13337 26.3436
RightArm  -24.6658 1.6679 50.4882
RightForeArm  72.6383 -5.23065 3.69459
RightHand  0.128514 -6.49029 -15.3838
LeftUpLeg  -11.0149 1.50594 -4.35651
LeftLeg  9.52706 11.5517 1.6427
LeftFoot  -3.7064 0.0318891 -0.055335
LeftToes  -1.43952e-010 7.51141e-011 -1.22592e-011
2229
root  -12.8724 39.7749 -41.1839 5.2655 8.73755 3.65116
RightUpLeg  -3.66294 2.4613 -2.48061
RightLeg  17.1284 -7.4242 -2.7637
RightFoot  -15.432 0.0337808 3.87343
RightToes  1.218e-010 1.26228e-014 -6.01869e-014
Spine  -9.13967 0.135027 -3.09286
Spine1  11.5172 1.2238 -3.96156
HEad  3.4271 10.9496 -3.02368
LeftShoulder1  0.85249 0.326755 -22.5557
LeftArm  1.87016 1.53195 -49.5217
LeftForeArm  40.0737 -0.96296 -12.9145
LeftHand  -0.0334286 5.12381 4.36913
RightShoulder  1.40574 1.00195 26.5826
RightArm  -24.7273 1.10377 50.628
RightForeArm  72.1907 -5.25186 3.71441
RightHand  0.132424 -6.50015 -15.4273
LeftUpLeg  -11.7177 1.55118 -4.59925
LeftLeg  10.6301 10.9048 1.68085
LeftFoot  -4.37356 0.035516 -0.0993285
LeftToes  -1.43952e-010 7.51141e-011 -1.22592e-011
2230
root  -12.9049 39.6729 -41.1918 5.41595 9.19995 3.88255
RightUpLeg  -5.48237 3.13436 -2.56454
RightLeg  20.7476 -8.07353 -3.57018
RightFoot  -16.0792 0.0896573 4.80021
RightToes  1.218e-010 1.26228e-014 -6.01869e-014
Spine  -8.7281 -0.0114838 -4.04582
Spine1  11.5106 1.07293 -3.91585
HEad  3.32217 10.9204 -2.51335
LeftShoulder1  0.878206 0.218337 -22.3738
LeftArm  1.48563 1.70356 -49.3772
LeftForeArm  40.2057 -0.0906652 -12.9623
LeftHand  -0.0321545 5.16 4.2776
RightShoulder  1.39232 0.927194 26.8497
RightArm  -25.2523 0.446571 50.8929
RightForeArm  72.4391 -5.2032 3.48165
RightHand  0.1227 -6.43291 -15.1162
LeftUpLeg  -12.4516 1.62864 -4.78688
LeftLeg  11.819 10.3117 1.72622
LeftFoot  -4.91766 0.0291468 0.00824992
LeftToes  -1.43952e-010 7.51141e-011 -1.22592e-011
2231
root  -12.9498 39.5797 -41.2024 5.45111 9.56384 4.03167
RightUpLeg  -7.70715 3.54032 -2.63644
RightLeg  25.2518 -8.04616 -4.33054
RightFoot  -16.251 0.156273 6.21187
RightToes  1.218e-010 1.26228e-014 -6.01869e-014
Spine  -8.1816 -0.137152 -4.99879
Spine1  11.434 0.892024 -3.72974
HEad  3.41883 10.9084 -2.10236
LeftShoulder1  0.897434 0.138826 -22.2606
LeftArm  1.4318 1.80871 -49.0745
LeftForeArm  40.2945 0.837999 -13.0852
LeftHand  -0.0280655 5.28837 4.15285
RightShoulder  1.39435 0.902524 27.1
RightArm  -25.3958 0.108696 50.9194
RightForeArm  72.2877 -5.20219 3.43925
RightHand  0.125014 -6.48017 -15.1798
LeftUpLeg  -13.0474 1.8279 -4.84311
LeftLeg  12.9442 9.68284 1.68417
LeftFoot  -5.48065 0.0320062 -0.0235382
LeftToes  -1.43952e-010 7.51141e-011 -1.22592e-011
